<mxfile host="app.diagrams.net" agent="Mozilla/5.0 (Windows NT 10.0; Win64; x64; rv:143.0) Gecko/20100101 Firefox/143.0" version="28.2.4">
  <diagram name="PÃ¡gina-1" id="wujXgnX4Fn6LwYmk0NB9">
    <mxGraphModel dx="946" dy="607" grid="0" gridSize="10" guides="1" tooltips="1" connect="1" arrows="1" fold="1" page="1" pageScale="1" pageWidth="827" pageHeight="1169" math="0" shadow="0">
      <root>
        <mxCell id="0" />
        <mxCell id="1" parent="0" />
        <mxCell id="FT4fXA2y3nJ1qJzNCgOV-1" value="" style="rounded=0;whiteSpace=wrap;html=1;" vertex="1" parent="1">
          <mxGeometry x="39" y="59" width="764" height="557" as="geometry" />
        </mxCell>
        <mxCell id="FT4fXA2y3nJ1qJzNCgOV-2" value="De un equipo sin codigo a un equipo con codigo" style="text;html=1;align=center;verticalAlign=middle;whiteSpace=wrap;rounded=0;" vertex="1" parent="1">
          <mxGeometry x="44" y="62" width="240" height="30" as="geometry" />
        </mxCell>
        <mxCell id="FT4fXA2y3nJ1qJzNCgOV-7" style="edgeStyle=orthogonalEdgeStyle;rounded=0;orthogonalLoop=1;jettySize=auto;html=1;exitX=0;exitY=0.5;exitDx=0;exitDy=0;entryX=0;entryY=0.5;entryDx=0;entryDy=0;curved=1;" edge="1" parent="1" source="FT4fXA2y3nJ1qJzNCgOV-4" target="FT4fXA2y3nJ1qJzNCgOV-5">
          <mxGeometry relative="1" as="geometry">
            <Array as="points">
              <mxPoint x="297" y="115" />
              <mxPoint x="297" y="597" />
              <mxPoint x="358" y="597" />
              <mxPoint x="358" y="595" />
            </Array>
          </mxGeometry>
        </mxCell>
        <mxCell id="FT4fXA2y3nJ1qJzNCgOV-4" value="tiene codigo" style="rhombus;whiteSpace=wrap;html=1;" vertex="1" parent="1">
          <mxGeometry x="317" y="77" width="100" height="76" as="geometry" />
        </mxCell>
        <mxCell id="FT4fXA2y3nJ1qJzNCgOV-21" style="edgeStyle=orthogonalEdgeStyle;rounded=0;orthogonalLoop=1;jettySize=auto;html=1;exitX=1;exitY=0.25;exitDx=0;exitDy=0;curved=1;shape=wire;dashed=1;endArrow=none;endFill=0;" edge="1" parent="1" source="FT4fXA2y3nJ1qJzNCgOV-5">
          <mxGeometry relative="1" as="geometry">
            <mxPoint x="436" y="427" as="targetPoint" />
          </mxGeometry>
        </mxCell>
        <mxCell id="FT4fXA2y3nJ1qJzNCgOV-5" value="fin" style="rounded=0;whiteSpace=wrap;html=1;" vertex="1" parent="1">
          <mxGeometry x="349" y="585" width="36" height="20" as="geometry" />
        </mxCell>
        <mxCell id="FT4fXA2y3nJ1qJzNCgOV-8" value="No" style="text;html=1;align=center;verticalAlign=middle;whiteSpace=wrap;rounded=0;" vertex="1" parent="1">
          <mxGeometry x="254" y="103" width="60" height="30" as="geometry" />
        </mxCell>
        <mxCell id="FT4fXA2y3nJ1qJzNCgOV-12" value="" style="edgeStyle=orthogonalEdgeStyle;rounded=0;orthogonalLoop=1;jettySize=auto;html=1;" edge="1" parent="1" source="FT4fXA2y3nJ1qJzNCgOV-9" target="FT4fXA2y3nJ1qJzNCgOV-10">
          <mxGeometry relative="1" as="geometry" />
        </mxCell>
        <mxCell id="FT4fXA2y3nJ1qJzNCgOV-9" value="obtener la ultima acutlizacion" style="rounded=0;whiteSpace=wrap;html=1;" vertex="1" parent="1">
          <mxGeometry x="473" y="85" width="120" height="60" as="geometry" />
        </mxCell>
        <mxCell id="FT4fXA2y3nJ1qJzNCgOV-14" style="edgeStyle=orthogonalEdgeStyle;rounded=0;orthogonalLoop=1;jettySize=auto;html=1;exitX=0;exitY=0.5;exitDx=0;exitDy=0;entryX=0.5;entryY=0;entryDx=0;entryDy=0;curved=1;" edge="1" parent="1" source="FT4fXA2y3nJ1qJzNCgOV-10" target="FT4fXA2y3nJ1qJzNCgOV-13">
          <mxGeometry relative="1" as="geometry" />
        </mxCell>
        <mxCell id="FT4fXA2y3nJ1qJzNCgOV-16" style="edgeStyle=orthogonalEdgeStyle;rounded=0;orthogonalLoop=1;jettySize=auto;html=1;exitX=1;exitY=0.5;exitDx=0;exitDy=0;curved=1;" edge="1" parent="1" source="FT4fXA2y3nJ1qJzNCgOV-10" target="FT4fXA2y3nJ1qJzNCgOV-15">
          <mxGeometry relative="1" as="geometry" />
        </mxCell>
        <mxCell id="FT4fXA2y3nJ1qJzNCgOV-10" value="Tiene transferencia" style="rhombus;whiteSpace=wrap;html=1;" vertex="1" parent="1">
          <mxGeometry x="471.75" y="177" width="122.5" height="82" as="geometry" />
        </mxCell>
        <mxCell id="FT4fXA2y3nJ1qJzNCgOV-11" value="" style="endArrow=classic;html=1;rounded=0;exitX=1;exitY=0.5;exitDx=0;exitDy=0;" edge="1" parent="1" source="FT4fXA2y3nJ1qJzNCgOV-4" target="FT4fXA2y3nJ1qJzNCgOV-9">
          <mxGeometry width="50" height="50" relative="1" as="geometry">
            <mxPoint x="389" y="367" as="sourcePoint" />
            <mxPoint x="439" y="317" as="targetPoint" />
          </mxGeometry>
        </mxCell>
        <mxCell id="FT4fXA2y3nJ1qJzNCgOV-13" value="Crea un asignacion&lt;br&gt;copiando los datos de la ultima actualizacion&amp;nbsp;" style="rounded=0;whiteSpace=wrap;html=1;" vertex="1" parent="1">
          <mxGeometry x="368" y="291" width="120" height="60" as="geometry" />
        </mxCell>
        <mxCell id="FT4fXA2y3nJ1qJzNCgOV-19" value="" style="edgeStyle=orthogonalEdgeStyle;rounded=0;orthogonalLoop=1;jettySize=auto;html=1;" edge="1" parent="1" source="FT4fXA2y3nJ1qJzNCgOV-15" target="FT4fXA2y3nJ1qJzNCgOV-17">
          <mxGeometry relative="1" as="geometry" />
        </mxCell>
        <mxCell id="FT4fXA2y3nJ1qJzNCgOV-15" value="Crea un asignacioncon datos del area del jefe de sistema" style="rounded=0;whiteSpace=wrap;html=1;" vertex="1" parent="1">
          <mxGeometry x="613" y="291" width="120" height="60" as="geometry" />
        </mxCell>
        <mxCell id="FT4fXA2y3nJ1qJzNCgOV-17" value="&lt;div&gt;Crea un transferencia copiando los datos obtenidos&lt;/div&gt;" style="rounded=0;whiteSpace=wrap;html=1;" vertex="1" parent="1">
          <mxGeometry x="613" y="385" width="120" height="60" as="geometry" />
        </mxCell>
        <mxCell id="FT4fXA2y3nJ1qJzNCgOV-20" style="edgeStyle=orthogonalEdgeStyle;rounded=0;orthogonalLoop=1;jettySize=auto;html=1;exitX=0.5;exitY=1;exitDx=0;exitDy=0;entryX=0.008;entryY=0.65;entryDx=0;entryDy=0;entryPerimeter=0;shape=wire;dashed=1;endArrow=none;endFill=0;" edge="1" parent="1" source="FT4fXA2y3nJ1qJzNCgOV-13" target="FT4fXA2y3nJ1qJzNCgOV-17">
          <mxGeometry relative="1" as="geometry" />
        </mxCell>
      </root>
    </mxGraphModel>
  </diagram>
</mxfile>
